<?xml version="1.0" standalone="no"?>
<!DOCTYPE svg PUBLIC "-//W3C//DTD SVG 20010904//EN"
 "http://www.w3.org/TR/2001/REC-SVG-20010904/DTD/svg10.dtd">
<svg version="1.0" xmlns="http://www.w3.org/2000/svg"
 width="512.000000pt" height="512.000000pt" viewBox="0 0 512.000000 512.000000"
 preserveAspectRatio="xMidYMid meet">
<metadata>
Created by potrace 1.11, written by Peter Selinger 2001-2013
</metadata>
<g transform="translate(0.000000,512.000000) scale(0.100000,-0.100000)"
fill="#000000" stroke="none">
<path d="M0 2560 l0 -2560 2560 0 2560 0 0 2560 0 2560 -2560 0 -2560 0 0
-2560z m2482 2235 c413 -54 779 -229 1080 -514 413 -391 637 -974 590 -1533
-7 -79 -21 -188 -33 -243 -26 -126 -22 -200 14 -280 24 -51 69 -101 313 -345
253 -253 289 -293 320 -355 69 -139 78 -306 29 -499 -93 -370 -334 -605 -712
-697 -105 -26 -270 -31 -353 -10 -143 36 -161 49 -474 360 -223 221 -304 295
-346 316 -77 39 -157 43 -290 16 -411 -85 -843 -29 -1226 159 -462 225 -810
625 -973 1115 -134 403 -132 812 5 1224 208 626 728 1099 1374 1251 214 50
470 63 682 35z"/>
<path d="M2140 4484 c-401 -34 -723 -176 -1002 -443 -263 -251 -420 -557 -474
-925 -22 -149 -15 -408 16 -551 133 -626 608 -1099 1243 -1237 88 -19 132 -22
317 -22 184 0 230 3 315 22 55 11 125 24 156 28 l57 6 168 169 c92 92 166 170
164 172 -3 3 -248 55 -545 116 -351 73 -549 118 -564 130 -77 55 -96 158 -44
230 10 14 41 37 67 50 l49 24 510 -106 c281 -58 512 -105 513 -104 1 1 -47
231 -107 511 -94 440 -108 514 -99 546 32 119 166 162 260 84 17 -15 35 -34
40 -44 5 -10 62 -262 126 -561 64 -299 118 -546 120 -549 3 -2 81 72 174 165
l168 168 7 61 c4 33 16 101 27 151 26 119 35 379 18 511 -72 579 -450 1069
-993 1288 -95 38 -251 80 -352 95 -83 12 -272 20 -335 15z"/>
<path d="M3497 1632 l-378 -379 38 -28 c21 -16 100 -89 176 -164 l137 -136
367 368 368 367 -131 132 c-71 73 -146 152 -165 176 l-34 42 -378 -378z"/>
<path d="M4067 1062 c-361 -361 -368 -368 -348 -386 78 -70 282 -57 461 31
181 88 303 284 317 510 6 99 -9 163 -45 196 -17 15 -42 -8 -385 -351z"/>
</g>
</svg>
